<?xml version="1.0" standalone="no"?>
<!DOCTYPE svg PUBLIC "-//W3C//DTD SVG 20010904//EN"
 "http://www.w3.org/TR/2001/REC-SVG-20010904/DTD/svg10.dtd">
<svg version="1.0" xmlns="http://www.w3.org/2000/svg"
 width="400.000000pt" height="400.000000pt" viewBox="0 0 400.000000 400.000000"
 preserveAspectRatio="xMidYMid meet">
<metadata>
Created by potrace 1.11, written by Peter Selinger 2001-2013
</metadata>
<g transform="translate(0.000000,400.000000) scale(0.100000,-0.100000)"
fill="#000000" stroke="none">
<path d="M160 2000 l0 -1840 1840 0 1840 0 0 1840 0 1840 -1840 0 -1840 0 0
-1840z m3396 838 c6 -7 6 -452 -1 -469 -3 -10 -24 -21 -46 -27 -35 -9 -41 -8
-51 12 -6 11 -19 35 -28 51 -8 17 -28 60 -44 97 -43 104 -38 102 -241 102 -95
1 -176 -2 -180 -6 -9 -8 -7 -1220 1 -1265 4 -23 13 -35 28 -38 11 -3 53 -12
91 -19 117 -24 125 -29 125 -76 0 -31 -4 -40 -17 -41 -41 -3 -96 -1 -228 7
-212 12 -400 10 -615 -8 -32 -3 -40 4 -40 36 0 44 19 56 155 95 60 17 115 37
122 44 22 21 24 79 23 542 -1 584 -4 703 -18 717 -9 9 -67 12 -200 12 -151 0
-193 -4 -217 -16 -34 -18 -105 -86 -105 -101 0 -5 13 -26 29 -46 44 -55 99
-171 123 -259 32 -114 32 -353 0 -467 -76 -263 -294 -472 -557 -531 -66 -15
-115 -18 -280 -15 -212 3 -725 2 -860 -2 l-80 -2 -3 47 c-3 50 -2 52 68 63 44
7 132 32 146 42 29 20 41 71 44 188 6 209 5 1008 -1 1057 -3 26 -9 51 -13 55
-9 10 -88 9 -177 -1 l-67 -7 -3 51 -4 51 50 14 c28 8 68 17 90 21 22 4 49 8
60 10 11 2 40 7 65 10 25 3 54 8 64 10 125 24 672 23 801 -1 114 -21 266 -84
341 -141 l43 -33 15 47 c8 26 24 80 36 120 l21 72 37 0 c33 0 40 -5 70 -50 27
-43 37 -50 65 -51 180 -3 1179 3 1203 7 25 5 36 14 50 46 10 22 27 43 38 47
19 8 64 7 72 -1z"/>
<path d="M1158 2678 c-94 -15 -118 -27 -119 -56 0 -15 0 -146 1 -292 7 -959 2
-892 69 -959 94 -94 323 -116 474 -46 175 81 257 219 292 490 7 58 8 246 0
290 -3 17 -7 44 -10 60 -15 91 -39 155 -86 236 -69 119 -172 204 -302 248 -88
31 -230 43 -319 29z"/>
</g>
</svg>
